<svg xmlns="http://www.w3.org/2000/svg" width="490.648" height="262.061" viewBox="0 0 490.648 262.061"><path d="M170.84 298.331c-11.44 14.613-36.604 25.05-53 33.247-5.737 2.868-13.42 8.386-20 8.268-21.511-.387-44.816-14.384-62-25.765-6.653-4.407-18.146-5.55-19.278 5.25-.67 6.392 6.71 11.493 11.278 14.652 6.93 4.792 14.24 9.6 22 12.92 5.951 2.548 13.287 3.856 18 8.428-12.838 2.744-25.93 9.971-38 15.15-6.537 2.806-14.383 4.765-19.995 9.24-8.88 7.082-7.64 21.891 3 27.038 13.181 6.377 32.799-7.555 44.995-12.108 28.85-10.77 57.902-23.973 85-38.628 13.612-7.362 26.232-17.295 40-24.134 7.548-3.749 17.902-.559 26-.558 21.719.003 43.239 1.401 65-.09 51.604-3.533 98.22-19.496 148-31.684 7.266-1.78 12.125 5.199 17 9.489 11.217 9.87 29.55 36.238 46.996 28.21 14.996-6.899 8.04-23.473-1-31.755-37.1-33.986-76.534-65.038-106.25-106.17-8.138-11.263-15.18-23.708-21.64-36-3.665-6.974-7.574-15.015-16.106-16.66-18.34-3.535-32.335 22.156-42.914 33.66-21.262 23.121-43.9 44.814-66.086 67-10.487 10.488-23.387 26.673-37 32.983-6.648 3.082-19.273-2.323-26-4.098-19.495-5.145-38.135-13.922-56-23.143-8.658-4.47-18.842-13.481-29-13.543-17.169-.105-7.746 17.831 1 22.377 28.153 14.631 55.76 26.818 86 36.424m163-107 40.29 55 27.71 30c-8.616 2.619-18.09 2.086-27 3.155-25.632 3.077-51.279 4.174-77 5.935-17.03 1.166-40.51 4.784-57-.09 15.077-21.403 39.215-37.532 56.83-57 9.934-10.978 22.91-30.538 36.17-37m-17 113v1c-32.38 10.24-71.585 6-105 6 2.942-8.67 17.685-6.28 25-5.96 26.888 1.177 53.2-.486 80-1.04" transform="translate(-3.939 -146.34)"/></svg>
