<svg xmlns="http://www.w3.org/2000/svg" width="30.086" height="47.878" viewBox="0 0 30.086 47.878"><path d="M15.828 22.548h-.32c-.997-5.373-.18-11.188-.324-16.64-.044-1.658-.943-4.36-3.178-3.588-2.404.83-1.618 5.171-1.618 7.108 0 6.862.83 14.526-1.28 21.12-1.678-3.197-1.572-7.164-4.219-9.886-.938-.965-2.961-2.308-4.227-1.076-1.7 1.655 1.657 7.7 2.165 9.682 1.922 7.5 1.824 16.946 11.401 18.585 1.416.242 2.752.146 4.16-.124 8.618-1.65 11.534-15.127 2.24-18.22-7.664-2.551-16.057 6.67-10.02 13.423 5.234 5.858 15.224-.299 11.95-7.584-2.93-6.521-13.295-1.795-10.103 4.479 2.61 5.13 10.152-.162 6.685-3.674-1.836-1.859-3.53.226-3.632 2.075.578-.283 3.21-1.34 2.677.404-.596 1.948-3.406 1.67-4.31.202-1.766-2.874 2.715-5.47 5.152-4.528 5.583 2.157 1.191 9.527-3.519 9.11-8.023-.712-5.625-11.82 1.28-12.49 5.88-.572 10.252 6.202 6.784 11.142-3.717 5.298-11.434 4.935-15.254 0-4.243-5.48-3.935-14.696-6.57-21.12 2.572 1.346 3.804 4.02 4.517 6.72.376 1.42.524 3.937 1.954 4.737 2.495 1.396 3.371-3.897 3.437-5.377.244-5.524.012-11.11.012-16.64 0-2.072-.496-4.934 1.6-6.08 1.008 5.43-.027 11.149.35 16.64.082 1.215.534 5.287 2.716 4.084 1.67-.92 1.094-4.455 1.094-6.004 0-5.018-1.328-12.313.64-16.96h.32c1.97 4.647.64 11.942.64 16.96 0 1.549-.462 5.082 1.099 6.065 2.143 1.352 2.407-2.699 2.42-3.825.065-5.428-.671-11.293.321-16.64h.64c1.613 4.426.64 10.363.64 15.04 0 1.674-.538 4.532.378 6.006.937 1.508 2.359.501 2.484-.89.365-4.063.254-8.4.338-12.476 2.207 1.217 1.173 5.46 1.465 7.68 1.13 8.603.563 18.48-4.025 25.92 7.508-5.303 5.123-18.109 5.12-25.92 0-2.053 1.036-8.375-1.351-9.356-1.607-.66-2.393 1.022-2.474 2.316-.239 3.804-.335 7.71-.335 11.52h-.32V8.148c0-1.724.447-4.916-1.924-5.32-2.489-.422-2.218 2.82-2.42 4.36-.668 5.087-.136 10.55-.136 15.68-1.364-4.615-.32-10.864-.32-15.68 0-1.82.555-4.843-.804-6.298-1.955-2.092-3.929.494-3.99 2.458-.201 6.387-.006 12.81-.006 19.2" transform="translate(-.185 -.114)"/></svg>
