<svg xmlns="http://www.w3.org/2000/svg" width="292" height="262.667" version="1.0" viewBox="0 0 219 197"><path d="M52 1c-11.2.5-15.7 1.1-19.7 2.7C13.5 11.2 2.5 25 .5 43.8c-.8 7.2 1.4 18.4 5.3 26 1.5 3.1 16.3 28.3 32.8 56 31.5 53.1 34.6 57.4 45.1 63.5 19.1 11 43.6 8.3 59.8-6.5 4.5-4.1 8.5-10 20.2-29.7 8-13.5 22.2-37.4 31.6-53.1 19.6-32.8 21.3-36.2 22.6-45.3 3.4-23.7-11.2-45.3-35.5-52.4-5.2-1.5-12-1.7-60.9-1.8C91.3.4 60 .6 52 1m128.1 22.6c17.9 8.3 22.2 27.9 9.3 42.3-6.1 6.8-12.6 9.5-21.9 8.9-14-.9-26.5-11.2-26.5-21.9v-3.1l11.8.4c9.5.3 12.5.8 15.8 2.5 5.5 2.9 10.4 7.7 10.4 10.2 0 3.9-4.4 3.7-14.4-.4-13-5.3-13-5.3-3.1.5 17.8 10.5 25.3 7 25.4-12 .1-5.7-2.7-11.8-6.8-15.3-5.9-5-11.5-5.9-36.1-6.4-12.4-.2-23.1 0-23.8.5-3.2 2.2-4.1 16.1-1.7 25.7C124.5 78.9 145 96 167 96c3 0 4 .4 4 1.6 0 2.2-37.2 64.4-41.3 69-6.9 7.9-21.5 10.9-31.3 6.5-16.5-7.5-21.7-27.8-10.6-41.8 5.8-7.3 18-12 27-10.3 6.7 1.2 7 2 3.4 9.2-5.3 10.7-16.5 19.8-24.5 19.8-6.8 0-3.7-5.9 6.6-13 12.3-8.4 10.7-8.3-4.3.3-12.6 7.2-12.9 14.6-1 22.5 12.9 8.7 23.4 6.1 34.7-8.5 5.1-6.6 20.3-32.5 20.3-34.7 0-3.1-14-11-25.8-14.6-19.2-5.8-42.6 1.7-53.6 17.1-2.2 3.2-4.8 5.8-5.7 5.8-1.1.1-8.1-10.7-21.2-32.7-10.8-18-20.2-34.2-20.8-36.1-1.5-4.2-.7-15.7 1.4-19.7 4.3-8.2 13.5-13.7 24.4-14.2 8.8-.5 12.9.8 18.7 5.9 6.5 5.7 10 13.5 10 21.8-.1 6.9-1.5 10.7-6.1 16.8-3.5 4.8-5.7 4.3-10-2.5-5.1-7.9-7.3-14.2-7.3-21 0-6.7 1.7-10.6 4.7-11 3.1-.5 5 3.8 6.5 14.9l1.3 9.4.3-8.2c.3-9.7-1-15.6-4.3-18.9-3-3-6.7-3.1-13.7-.3C37.9 33.4 33 39.6 33 49.3c0 8.3 2.5 14.5 13 32.1 11.8 19.7 11.3 19.5 25.5 11.2 20.2-11.9 28.2-25.5 27.3-46-.3-7.7-1-10.4-4-17.4l-3.6-8.3 42.1.3c40.5.3 42.4.4 46.8 2.4"/><path d="M104.4 75.2c-1.5 2.9-3.5 6.4-4.6 7.8-1.1 1.5-1.6 3.3-1.2 4.3.5 1.4 2.1 1.7 10.5 1.7 8.6 0 10-.2 10.8-1.9.9-1.5.2-3.2-3.4-8.7-2.5-3.7-4.5-7.2-4.5-7.6s-1.1-.8-2.5-.8c-2 0-3 1-5.1 5.2"/></svg>