<svg xmlns="http://www.w3.org/2000/svg" width="288" height="289.333" version="1.0" viewBox="0 0 216 217"><path d="M89.7 2.5c-63.8 12.1-102.6 75-84.5 137 9.4 32.4 36 60.1 67.8 70.8 22.6 7.6 47.9 7.7 69.8.3 22.4-7.6 41.5-22.4 55.2-42.6 14.5-21.4 20.9-51 16.5-76.3-4.3-24.6-14.6-44-32.6-61.1C168 17.3 153.7 9.4 134.1 4.3c-12.3-3.2-32.7-4-44.4-1.8M107 29.8c6.5 3.3 11.6 10.2 12.6 17 2 13.2-8.3 26.9-21.1 28-5 .4-5.5.3-5.5-1.6 0-3.4 4.6-15.9 7-18.9 2.5-3.3 8.7-7.3 11.3-7.3 3.6 0 1.9 3.3-7.7 14.9-3.2 3.9-5.6 7.5-5.2 7.8 1 1 17.3-15.5 18.7-18.9 2.7-6.5-2.1-12.3-12.7-15.4-9.2-2.6-16.2.2-22 8.8-3.1 4.6-9.3 22.2-13 36.6l-1.9 7.3L70 90c1.4 1.1 5.5 2.9 9.2 4.1 8.8 2.8 22.3 2.4 31-1 22.3-8.6 33.2-30.5 27-54.1-1.1-4.1-1.8-7.7-1.6-7.9.8-.9 11.7 5 17.3 9.3 7.2 5.6 17.8 16.8 22.9 24.3 17.1 25.2 20.6 50.2 10.1 72.1-5.2 10.8-9.2 13.7-18.8 13.7-8.8 0-16.2-4-20.6-11-4.1-6.5-4.8-17.1-1.6-23.3 1.2-2.3 2.6-4.2 3.2-4.2 1.8 0 9.7 8.9 12 13.7 2.6 5.4 3.8 14.7 2 15.8-2.3 1.4-4.9-2.7-8-12.5-1.8-5.5-3.6-10-4.1-10-1.3 0-1.3.6 1 10.7 2.6 11.1 4.1 14.5 7.7 17.1 2.9 2 3 2 7 .2 5.4-2.4 12.3-8.7 14-12.7 2.1-5.2 1.6-12.2-1.2-18-3.8-7.5-26.6-33.3-29.5-33.3-.8 0-5.3 3.9-10.1 8.7-9.9 10.1-14.1 17.8-15.9 28.7-1.2 7.8-.7 13.1 2.2 23 1.7 6.2 2.8 7.8 8.6 13.6 7.5 7.4 13.6 10.4 25.5 12.3 3.7.6 6.7 1.5 6.7 1.9 0 1.7-12.4 9.8-19.7 12.8-21.1 8.8-49.9 9.4-70.7 1.6-17.6-6.7-33.6-23-33.6-34.3 0-7.5 5.3-15.5 12.8-19.6 10.6-5.8 21.6-4.3 29.2 3.9 2.3 2.5 4 5.2 3.8 6.1-.4 2.1-6.7 4.2-14.5 5-7 .7-13.7-1.2-16.9-4.8-1.6-1.7-1.6-2.2-.4-3 1.4-.9 4.3-.8 19 .7 9.2 1 7.1-.8-3.8-3.3-14.2-3.3-15.9-3.3-19.9.1-2.5 2.2-2.7 2.9-2.5 9 .2 7.7 2.6 13.9 6.8 17.7 6.9 6.2 15.4 6.4 38 .8 20.3-5.1 19.8-4.6 16.5-18.3-1.2-5.2-3.5-12-5-15.3-3.7-7.6-11.6-15.4-20-19.6-6-2.9-7.4-3.2-15.6-3.1-13.1.1-22.1 4.3-35.8 16.5-3.2 2.8-6.1 4.9-6.4 4.5-.3-.3-.8-6.4-1.1-13.4-.7-19.5 2.5-32.7 11.8-48.3 8.4-14.2 19.7-25.1 34.1-32.8C86.2 26.5 98 25 107 29.8"/><path d="M112 102.9c-.8.5-3.9 1.4-6.8 2.1-4.5 1-7.2 3-7.2 5.3 0 .3 2.9 3.5 6.4 7.1 6.9 7 9.1 7.6 10.2 2.7.3-1.4 1.5-5.4 2.6-8.9 1.6-5 1.7-6.6.8-7.7-1.4-1.7-3.7-1.9-6-.6"/></svg>