<svg xmlns="http://www.w3.org/2000/svg" width="294.667" height="289.333" version="1.0" viewBox="0 0 221 217"><path d="M107.2 3.3c-.7.7-2.3 4.5-3.8 8.3-3.8 10-4.1 18.8-1.4 36.8 2.3 15 2.4 28.6.3 30.7-.8.8-13 3.9-15.5 3.9-.3 0-5.3-8.3-11-18.4-5.6-10.2-10.4-18.4-10.5-18.3-.1.2 2.2 9.5 5.2 20.9l5.3 20.6-5.2 3.5-5.2 3.4-3.4-2.9c-6.5-5.6-14.5-10.3-26.5-15.6-14.4-6.3-21.7-11.7-28.6-21.4-4.6-6.5-5.1-6.9-4.5-4 1.1 6 6.5 15.9 11.8 21.7 2.8 3.1 10.5 9.7 17 14.7C42.8 96 49.5 103 50.6 107.6c.4 1.4-.4 3.7-2.2 6.5-1.6 2.4-2.9 4.5-3 4.7s-9.6-2.4-21.2-5.8c-11.6-3.3-21.4-6-21.9-6-.4 0 7.8 5 18.2 11 10.4 6.1 19.1 11.3 19.3 11.5.3.2-.3 3.3-1.2 6.9-2 8-2.1 15.6-.3 15.6 2.8 0 4.7-2.9 7.7-12 5-15.4 16.9-29 31.8-36.5 14-6.9 36-9.1 49.7-4.8 23.7 7.4 40.5 31.2 40.5 57.3 0 10.5-1.9 18.1-6.8 27.4-11.5 22-33.7 30.9-59.5 23.9-19.6-5.3-33.8-26.4-32.5-48.1 1-15.2 13-32.1 26.5-37.3 6.6-2.5 18-3 25-1 18 5 29 28.9 20.9 45.5-5.1 10.5-14.2 15.6-27.5 15.6-12 0-19.9-5.5-23.5-16.3-4.1-12.2 1-24.9 11.6-29.2 6.6-2.6 17.5-2.4 22.9.6 5 2.8 8.5 7.5 10.2 13.7 1.4 5.4 3.2 4.9 2.9-.9-.7-10.8-5.5-18-14.4-22-4.3-1.9-7-2.3-13.8-2.3-18.5.2-30.4 8.9-34.6 25.4-6 23.6 10.1 46.4 35.4 50 22.5 3.2 44.1-9.6 52.3-30.8 6-15.6 0-39.9-13.1-53.6-10.6-11-25-16.3-42-15.3-25.9 1.4-46.1 19.3-51.6 45.7-2.4 11.3-.6 24.4 4.9 35.4 12.3 24.7 42.7 39.4 68 32.7 25-6.6 43.3-23.8 49.2-46.6 1.9-7.3 2-24.6.2-33.2l-1.4-6.3 20.4-10.7c11.1-5.9 20.1-10.8 19.9-11-.1-.2-10 2.3-22 5.4-23.3 6.1-22.7 6.1-24.2.6-.5-1.8.6-3.6 5.1-8.4 4.2-4.6 7.1-9.3 11.6-18.8 3.3-6.9 6.8-14.1 7.7-16 2.6-5.2 11.6-14.6 18.5-19.2 6.7-4.4 5.4-4.6-4.8-.8-9.4 3.5-16.6 9.8-28.5 24.8-7.2 9.1-12.8 15.1-16.3 17.5-2.8 2-5.6 3.6-6 3.6s-3-1.5-5.8-3.4c-2.7-1.9-5.8-3.8-6.9-4.1-1.1-.4-2-1.1-2-1.6s2.5-9.6 5.5-20.1 5.3-19.3 5.2-19.5c-.2-.1-4.9 7.8-10.6 17.7-5.6 9.9-10.6 18-11.1 18s-3.2-.5-5.9-1.1c-4.6-1-5.1-1.3-5.5-4.2-2-15-3.1-19.1-7.5-29.6-2.7-6.4-5.5-13.6-6.2-16.1-1.5-5.5-1.5-20 0-25.4 1.2-4.4 1-5.3-.7-3.3"/></svg>