<svg xmlns="http://www.w3.org/2000/svg" width="1021.333" height="774.667" version="1.0" viewBox="0 0 766 581"><path d="M355 9c-35.5 3.8-62.4 31.5-66.1 67.8-1.7 16.8 1.5 29.2 12.9 49.4 3.7 6.8 13.5 24.2 21.7 38.7l14.9 26.4-4.7 9.1c-2.6 5-10.5 19.9-17.7 33.1-14.7 27-19 32.4-30 37.8-6.1 3-7.1 3.2-17.5 3.2-10.3 0-11.4-.2-17.7-3.2-9.3-4.4-15.1-10-19.6-19.1-3.6-7.4-3.7-7.9-3.7-18.6 0-10 .3-11.7 2.7-16.8 3.8-8.1 7.2-12.3 14.2-17.2 9.1-6.5 14.4-8.1 25.6-8.1 15.4.1 16.7 2 10.1 16-7.5 16.1-24.4 30.1-35.4 29.3-4.1-.3-4.2-.4-4.5-4.1-.3-3.4.2-4.3 4-8.1 2.4-2.3 5.6-5.2 7.3-6.3 5.8-4.1 1.5-3.5-5.7.8-8.5 5.1-11.8 9.8-11.8 16.9 0 4.1.4 4.8 5.8 10 16.9 16.1 33.5 17.1 48.6 2.9 9.5-8.8 17.6-21.8 35.1-56.1 5.4-10.4 4.9-11.5-7.5-18.5-26.9-15.1-45.4-18.2-67.5-11.2-13.5 4.3-30.4 15.1-37.9 24.2-10.4 12.7-15.5 26.2-16.3 43.3-.7 14.1 1.2 23.2 7.5 35.7 3.7 7.5 6.2 10.8 13.6 18.3 10 10 17.2 14.6 30.1 19 7.1 2.5 9.5 2.8 21 2.8 15.6.1 21.9-1.3 35.3-8 11-5.5 21-14.4 27.5-24.2 2.4-3.7 10.8-19.3 18.7-34.7 7.8-15.4 16.4-32.1 19.1-37.1l4.9-9.1 23.2-.6c49.7-1.4 58.6-.9 68.6 4.2 7.2 3.7 13.9 10.8 17.9 18.9 3.7 7.4 3.8 7.9 3.8 18.6 0 10-.3 11.7-2.8 17-3.8 8.3-13.5 17.5-21.8 20.8-3.5 1.4-8.5 2.9-10.9 3.3-6.7 1-17.6-1.1-24.8-4.7-11.6-5.8-21.9-19-22.5-28.6-.2-3.3.1-3.8 3.3-4.9 4.8-1.6 19.1-1.6 27.3.2 8.6 1.8 17.6 6.6 22.7 12.1 9.3 10.1.7 14-15.2 6.8-8.8-4-12.4-4.1-6.3-.2 18.2 11.5 28.6 11.6 33.6.2 2.9-6.6 3.7-20.3 1.5-27.8-3-10.1-12.2-17.8-25.6-21.4-4.1-1.1-13.8-1.6-37.7-1.9-32.1-.5-32.1-.5-34.3 1.7s-2.2 2.6-1.7 20.9c.5 21 2.1 28.3 8.4 40.3 11.9 22.7 40.8 39.8 67.2 39.8 42-.1 74.2-35 71.8-78-.7-11.4-2.7-19.2-7.4-28.5-9.6-18.9-27.5-33.4-48.3-39.2-7.5-2-29.2-2.2-53.5-.4-7.7.6-22.6 1.4-33 1.7l-19.1.7-16.6-32.9c-9.1-18.1-17.4-35.3-18.3-38.3-1.3-4.1-1.6-7.3-1.2-13.2 1-15.2 10.2-28.6 24.2-35.5 5.5-2.7 6.9-2.9 17-2.9 9.9 0 11.6.3 16.8 2.7 8 3.8 17 12.6 21 20.7 3.1 6.3 3.2 7.1 3.2 18.6 0 11.1-.2 12.5-2.8 18.1-3.6 7.7-11.4 15.7-14.8 15.2-4.7-.6-13.8-18-16-30.4-1.9-11.1 1.1-25.5 5.8-27.7 2.2-1 2.8-.8 4.7 1.4 1.1 1.5 2.6 3.4 3.2 4.4 1.2 2.2 3.4 1.2 3.4-1.6 0-5.6-6.6-11.9-12.5-11.9-4.7 0-18.2 4.6-23.5 8-12.7 8.1-16.2 23.4-9.8 42.8 3 9.3 24.3 52.9 27.5 56.4 2.6 2.9 5.6 2.2 18.2-4.1 31.1-15.6 45.2-33.9 48.2-62.6 2.8-26.1-4.2-46.9-21-62.8C396.9 13.4 376.9 6.6 355 9"/><path d="M366.5 305.9c-2.3 1-6 4.1-8.4 6.9-6.3 7.6-13.1 8.1-19.3 1.5-10.9-11.7-24.2-5.6-64.9 30.2-14.5 12.7-32.3 26.1-47.6 35.8C214 388 158.7 416 140 423.9c-19.2 8.2-48.2 17.4-72.5 23-12.1 2.8-28.8 6.7-37.2 8.7-8.3 1.9-15.6 4.1-16.2 4.8s-1.2 2.3-1.3 3.7c-.3 2 .7 2.9 6.7 6.1 8.9 4.7 31 12.1 44 14.7 58.7 11.7 119.5-3 160.4-38.7 8.5-7.5 19.1-19.7 31.4-36.2 24.2-32.5 27.7-37 36.2-45.6 9.4-9.5 16.7-15 27.2-20.3 6.7-3.3 8.3-3.7 8.3-2S309.7 373 300.4 387c-4.5 6.9-12.2 17.4-17 23.5-11.7 14.8-41.1 43.9-55.9 55.3-14 10.9-40.8 29-62 42.2-15 9.3-16.8 10.7-15.9 12.2 2 3.2 39-4.6 60.9-12.9 37.9-14.3 67.6-35.8 90.4-65.3 14.8-19.2 23.8-36.4 32.5-62 4.1-12.1 9.6-35.8 9.6-41.2 0-1.9.4-2 6.8-1.6 15 1.2 23.7 6.9 33.2 21.7 27.9 43.8 38.5 57.2 59 74.3 38.1 32 78.9 47.4 137.4 51.9 30.4 2.4 71.5-.9 103.6-8.2 10.8-2.5 28.7-7.8 32.3-9.6 3.4-1.7 3.7-5.6.5-7.7-4-2.5-34.8-12-83.8-26-65.6-18.7-94.5-28.7-126.5-44-23.5-11.3-34.7-19.2-55.7-39.3-24.9-23.9-36.1-32.9-49.4-39.6-13.2-6.7-25.8-8.5-33.9-4.8"/><path d="M352.4 346.1c-2.6.9-6.4 11.5-9.1 24.9-2.3 11.8-2.3 33.7.1 45 6.6 31.5 14.2 45 38.7 69.2 24.4 24.1 44.1 37.9 70.4 49.3 26.7 11.5 54.3 17.5 81.1 17.5 11.3 0 13.6-.2 14.1-1.6.9-2.4-1.4-3.9-10.7-6.9-51.1-16.6-94.5-47.3-116.5-82.4-2.9-4.7-17.8-34.3-19.6-38.8-.5-1.5-3.4-6.8-6.3-11.8-2.9-4.9-7.8-13.5-10.8-19-14.4-26.2-25.9-44.9-28.2-45.8-.6-.2-2.1-.1-3.2.4"/></svg>