<svg xmlns="http://www.w3.org/2000/svg" width="177.333" height="205.333" version="1.0" viewBox="0 0 133 154"><path d="M69 4c-3 10.7 1.5 23.9 12 35.4C91.9 51.5 95.3 62.9 91.1 74c-2.9 7.6-7.1 12.3-14.3 15.9-18.7 9.4-39.3-4-37.6-24.5.9-11.1 10.2-20.3 21.3-21.2 7.3-.6 15.4 3.2 19.3 9 3.7 5.6 4.3 14.8 1.3 20.5-6.4 12.6-24.7 13.1-30.5.9C45.8 64.5 52.4 54 63.5 54c3 0 4.5.8 7.6 3.9 3.3 3.3 3.9 4.5 3.9 8.2 0 5.4-2.7 10.1-6.9 11.9-3.4 1.4-4.1 3-1.3 3 3.2 0 9.5-4.5 11.3-8 7.3-13.6-6.4-29.2-21.9-24.9-13.1 3.6-18.9 19.2-11.7 31.5 3.7 6.3 9.4 9.7 17 10.2 7.8.5 12.6-1 17.7-5.6 5.6-5.1 8.1-10.5 8.2-17.7.1-18-16.9-30.3-34.9-25-8.3 2.4-16.6 10.7-19.1 19-2.5 9-1.2 17.4 4.3 27.6.2.4-1.6.2-4.1-.3-6-1.3-11.7.4-15 4.3-3.2 3.8-3.3 6.6-.3 11 3.5 5.2 16.7 12.4 16.7 9.1 0-.4-2-1.8-4.6-3.1-5.4-2.9-9.4-7.4-9.4-10.6s1.5-3.9 7.8-3.8c6.8.2 17.2 4.9 23.1 10.6 5.2 5 10.1 14.7 10.1 20 0 2.1.7 5.4 1.6 7.5l1.5 3.7 2-2.4c1.2-1.5 1.9-3.9 1.9-6.7 0-6.1 4.8-16.2 10.2-21.7 2.4-2.4 7.1-5.6 10.3-7.2 7.1-3.3 17-4.4 19.9-2.3 1.7 1.4 1.7 1.6.2 4.6-1.8 3.4-6.6 7.5-10.9 9.1-3.6 1.4-2.5 3.5 1.5 2.7 6.7-1.3 15.8-10.2 15.8-15.5 0-1.2-1.5-3.8-3.4-5.9-3.4-3.6-3.6-3.7-10.9-3.7h-7.4l2.3-3.5c3.3-5 5.8-15.4 5-21.4-.8-7.1-5.3-15.7-14.1-27.1-9-11.6-14.2-21.4-16-29.9L70.3-.5zm2.1 100.7c-1.4 1.7-3.3 4.1-4.1 5.2-1.5 2-1.6 1.9-5-3.2l-3.6-5.2h15.4z"/><path d="M19 115.6c-.8.1-3.7.6-6.3.9C6 117.4 1 121.8 1 126.9c0 12.8 21.9 23.5 53.6 26.1 30.1 2.4 63.1-5.2 73.8-17 3-3.3 3.6-4.8 3.6-8.3 0-5.5-1.9-8.1-7.7-10.4-9.4-3.6-39.5-1.3-43.4 3.3-1.9 2.3-.8 2.4 5.6.7 8.6-2.3 27.7-2.3 32.8-.1 3 1.4 3.8 2.2 3.5 4-.7 5.4-16.4 9.9-41 11.9-31 2.5-68.8-3.4-71.3-11-.9-3.1 0-3.9 6.3-5.7 6.6-1.9 22.3-1.5 31 1 4.4 1.2 5.2 1.2 5.2 0 0-3.1-26-7.6-34-5.8"/></svg>