<svg xmlns="http://www.w3.org/2000/svg" width="256" height="256"><defs><clipPath id="a" clipPathUnits="userSpaceOnUse"><path d="m-254.746 208.483 30.04 55.876 27.638 37.25 26.436 10.215 33.646 2.403-40.856-31.243-30.641-33.645-23.432-48.666z" style="fill:#000"/></clipPath></defs><path d="M-274.589 204.363V81.046h256V327.68h-256zm135.285 119.115c3.72-.586 10.042-2.41 14.048-4.052 4.007-1.643 10.329-3.488 14.05-4.1 24.553-4.042 32.84-7.757 37.44-16.784 1.02-2.003 2.712-6.374 3.758-9.712 1.706-5.446 2.71-6.733 9.75-12.506 4.316-3.54 9.101-7.236 10.634-8.214 1.532-.977 6.51-5.418 11.063-9.868 7.982-7.803 8.369-8.405 10.864-16.936 7.395-25.286 7.238-33.408-.977-50.471-1.378-2.862-3.87-8.593-5.539-12.735-8.963-22.248-21.755-43.464-39.868-66.12-4.62-5.778-20.116-18.676-27.395-22.801l-6.089-3.45-29.138-.1c-16.026-.054-35.928-.283-44.227-.507l-15.09-.409-4.718 3.265c-5.474 3.788-17.56 16.316-21.188 21.963-1.373 2.137-4.678 5.993-7.345 8.568-7.937 7.668-18.56 25.483-24.191 40.572-1.81 4.851-4.107 8.405-8.076 12.502-7.688 7.933-9.182 11.306-9.717 21.935-.563 11.182-.103 12.206 13.516 30.051 4.593 6.02 16.711 29.969 22.13 43.738 5.686 14.445 7.526 17.053 22.17 31.432 15.392 15.113 20.946 18.473 37.712 22.819 12.045 3.121 24.59 3.783 36.423 1.92m-26.537-15c-17.339-5.035-23.915-8.347-26.764-13.479-.733-1.321-4.28-6.745-7.879-12.054-3.6-5.308-6.397-10.097-6.215-10.643s1.489.675 2.903 2.712c7.4 10.654 14.612 20.126 16.782 22.04 1.519 1.339 5.194 2.606 9.726 3.352 4.006.66 10.943 2.617 15.416 4.35 4.472 1.734 9.78 3.152 11.794 3.152 2.465 0 3.522.425 3.234 1.3-.726 2.204-10.141 1.841-18.997-.73m-73.191-86.314c-4.103-4.231-7.46-8.543-7.46-9.581 0-1.424 1.173-.746 4.761 2.75 4.765 4.644 11.295 13.387 10.552 14.129-.216.217-3.75-3.067-7.853-7.298" clip-path="url(#a)" style="fill:#f2ebe1;stroke-width:1.04065" transform="translate(278.945 -82.313)scale(1.0278)"/><path d="M-175.727 321.558c-16.766-4.346-22.32-7.706-37.712-22.819-14.644-14.379-16.484-16.987-22.17-31.432-5.419-13.769-17.537-37.719-22.13-43.738-13.619-17.845-14.08-18.87-13.516-30.05.535-10.63 2.029-14.003 9.717-21.936 3.97-4.097 6.265-7.65 8.076-12.502 5.63-15.09 16.254-32.904 24.191-40.572 2.667-2.575 5.972-6.43 7.345-8.568 3.628-5.647 15.714-18.175 21.188-21.963l4.718-3.265 15.09.409c8.299.224 28.201.453 44.227.508l29.138.099 6.089 3.45c7.279 4.125 22.776 17.023 27.395 22.801 18.113 22.656 30.905 43.872 39.868 66.12 1.669 4.142 4.161 9.873 5.539 12.735 8.215 17.063 8.372 25.185.977 50.471-2.495 8.531-2.882 9.133-10.864 16.936-4.553 4.45-9.531 8.891-11.063 9.868s-6.318 4.674-10.634 8.214c-7.04 5.773-8.044 7.06-9.75 12.506-5.618 17.925-11.289 21.572-41.199 26.496-3.72.612-10.042 2.457-14.049 4.1-14.568 5.973-32.695 6.738-50.471 2.132m39.23-.188c2.176-.704 7.235-2.574 11.241-4.155 4.007-1.581 11.734-3.577 17.171-4.436 25.68-4.055 31.363-7.854 36.422-24.342 2.26-7.369 3.215-8.67 9.38-12.79 1.285-.858 5.905-4.495 10.267-8.081 18.36-15.096 20.405-17.647 23.542-29.382 2.515-9.41 4.858-20.836 4.907-23.935.065-4.168-3.044-14.955-6.358-22.058a399 399 0 0 1-5.861-13.324c-6.332-15.299-16.086-33.206-25.676-47.14-7.75-11.26-19.558-25.38-23.675-28.307-2.414-1.717-6.538-4.923-9.165-7.125-4.973-4.168-10.341-6.933-17.425-8.975-4.222-1.217-32.58-.902-45.954.51-3.81.401-7.228.237-8.428-.405-1.111-.595-7.617-1.169-14.457-1.276-10.154-.16-13.169.153-16.428 1.7-5.393 2.559-15.117 11.723-20.748 19.555-2.54 3.532-6.581 8.296-8.98 10.585s-6.931 8.042-10.073 12.784c-5.623 8.486-15.05 27.325-16.292 32.557-.349 1.47-3.445 5.628-6.88 9.238-7.111 7.473-10.46 14.845-10.46 23.03 0 7.284 2.427 11.78 15.78 29.24 1.608 2.103 6.092 10.34 9.963 18.304 7.048 14.5 8.479 17.672 12.785 28.343 4.006 9.929 6.838 13.742 19.475 26.223 10.756 10.623 13.476 12.72 21.498 16.569 5.05 2.423 12.059 5.004 15.573 5.734s8.029 1.762 10.032 2.294c4.855 1.29 23.857.673 28.824-.935m-25.845-2.505c-.282-.283-4.962-1.409-10.398-2.502-14.604-2.938-28.6-10.632-36.525-20.079-2.445-2.914-7.044-8.224-10.22-11.8-3.72-4.19-6.803-9.045-8.667-13.653-1.592-3.933-3.56-8.689-4.373-10.568-.813-1.88-1.479-3.823-1.479-4.32 0-2.654-14.012-29.138-20.292-38.352-10.15-14.892-11.97-18.56-11.958-24.115.012-5.764 3.758-12.631 11.377-20.853 3.106-3.352 6.146-7.974 7.338-11.154 2.657-7.092 10.552-22.57 14.257-27.95 9.04-13.128 32.002-39.073 36.78-41.558 1.451-.755 4.261-1.166 6.243-.914 12.403 1.578 32.672 2.102 47.312 1.222 27.262-1.639 31.054-1.362 39.545 2.884 14.42 7.21 27.941 22.155 44.67 49.373 6.7 10.9 16.203 28.986 16.206 30.842.003 1.75 6.312 15.08 8.475 17.907 2.754 3.598 7.439 19.767 6.656 22.972-.36 1.477-1.122 5.027-1.692 7.888-.965 4.84-2.962 11.7-5.367 18.437-.555 1.555-4.12 5.847-7.922 9.537-7.146 6.937-9.714 9.103-23.977 20.23-5.923 4.62-8.436 7.253-8.447 8.846-.024 3.394-2.278 10.054-5.025 14.847-1.733 3.025-3.989 5.019-7.804 6.897-4.968 2.446-20.58 6.634-28.547 7.657-1.875.24-5.153 1.186-7.285 2.102-11.698 5.021-19.593 6.487-29.372 5.453-.858-.09-3.233.15-5.278.537-2.044.386-3.948.47-4.23.187m15.498-9.656c.288-.876-.77-1.301-3.234-1.301-2.015 0-7.322-1.418-11.794-3.152-4.473-1.733-11.41-3.69-15.416-4.35-4.532-.746-8.207-2.013-9.726-3.353-2.17-1.913-9.382-11.385-16.782-22.04-1.414-2.036-2.72-3.257-2.903-2.711s2.615 5.335 6.215 10.643 7.146 10.733 7.88 12.054c2.848 5.132 9.424 8.444 26.763 13.479 8.856 2.571 18.27 2.934 18.997.73m-26.45-68.683c.26-.43-.831-5.932-2.427-12.228-5.345-21.098-13.487-56.163-13.773-59.317l-.282-3.122-9.886.37c-5.438.205-10.048.522-10.245.706s-.514 1.657-.705 3.272c-.48 4.078-3.5 16.99-4.26 18.221-.583.943-1.238 3.337-5.075 18.537-.795 3.148-2.434 9.001-3.643 13.008s-2.668 9.158-3.243 11.447c-.575 2.29-1.488 4.607-2.027 5.151-2.153 2.17-.656 2.732 6.499 2.44l7.48-.306 1.193-4.69c2.31-9.079 2.665-9.36 11.854-9.36 5.344 0 8.54.459 9.262 1.328.606.73 1.428 3.79 1.828 6.802.916 6.91 3.001 8.521 11.024 8.521 3.273 0 6.165-.351 6.426-.78m-34.12-26.19c-1.004-1.625 4.913-26.802 6.725-28.615.565-.564 1.077-.815 1.139-.558.371 1.55 3.22 17.053 4.074 22.162.558 3.347.754 6.508.435 7.025-.762 1.233-11.61 1.22-12.372-.014m52.781 24.108c.222-.429-.01-11.239-.517-24.021-.542-13.693-.537-24.382.014-26.017l.934-2.775 2.17 4.232c1.192 2.328 3.104 6.777 4.247 9.886 1.144 3.11 3.362 8.699 4.93 12.419s4.37 11.213 6.226 16.65l3.374 9.887 8.778.298 8.778.298.741-36.2c.408-19.911.833-37.138.946-38.283.186-1.902-.422-2.08-7.081-2.08h-7.285l-.278 25.755c-.153 14.166-.621 25.756-1.04 25.755s-2.563-4.801-4.764-10.667-6.378-16.87-9.283-24.454l-5.282-13.788h-8.541c-5.631 0-8.914.45-9.637 1.32-.712.859-1.147 13.508-1.244 36.163-.081 19.163-.114 35.193-.072 35.622s3.093.78 6.78.78c3.686 0 6.884-.35 7.106-.78m76.727-13.696c0-14.323.04-14.569 3.748-23.154 2.062-4.773 5.36-13.127 7.327-18.564 1.968-5.438 4.496-11.155 5.617-12.706 3.926-5.429 3.061-6.14-7.057-5.806l-9.096.3-.148 3.643c-.298 7.347-7.015 27.142-8.626 25.42-.496-.53-2.45-7.287-4.342-15.014s-3.579-14.24-3.748-14.473c-.61-.843-14.398.047-15.35.991-.868.862.783 5.698 7.269 21.287 1.58 3.798 6.387 16.19 8.44 21.755 1.025 2.78 1.464 8.034 1.391 16.65-.058 6.923-.08 12.938-.05 13.367s3.334.78 7.34.78h7.285zm-155.97-.228c-4.56-6.702-12.615-14.326-12.615-11.937 0 1.778 14.466 17.725 15.312 16.879.217-.217-.997-2.44-2.698-4.942" style="fill:#c19e69;stroke-width:1.04065" transform="translate(278.945 -82.313)scale(1.0278)"/><path d="M-165.32 322.305c-2.004-.532-6.518-1.564-10.033-2.294s-10.522-3.31-15.573-5.734c-8.022-3.85-10.742-5.946-21.498-16.57-12.637-12.48-15.469-16.293-19.475-26.222-4.306-10.671-5.737-13.843-12.785-28.343-3.871-7.964-8.355-16.201-9.963-18.304-13.353-17.46-15.78-21.956-15.78-29.24 0-8.185 3.349-15.557 10.46-23.03 3.435-3.61 6.531-7.767 6.88-9.238 1.241-5.232 10.669-24.07 16.292-32.557 3.142-4.742 7.675-10.494 10.073-12.784s6.44-7.053 8.98-10.585c5.63-7.832 15.355-16.996 20.748-19.556 3.26-1.546 6.274-1.858 16.428-1.699 6.84.107 13.346.681 14.457 1.276 1.2.642 4.618.806 8.428.404 13.373-1.411 41.732-1.726 45.954-.509 7.084 2.042 12.452 4.807 17.425 8.975 2.627 2.202 6.751 5.408 9.165 7.125 4.117 2.928 15.924 17.046 23.675 28.308 9.59 13.933 19.344 31.84 25.676 47.14 1.54 3.72 4.177 9.715 5.86 13.323 3.315 7.103 6.424 17.89 6.359 22.058-.05 3.1-2.392 14.526-4.907 23.935-3.137 11.735-5.182 14.286-23.542 29.382-4.362 3.586-8.982 7.223-10.267 8.082-6.165 4.12-7.12 5.42-9.38 12.79-5.06 16.487-10.742 20.286-36.422 24.341-5.437.859-13.164 2.855-17.17 4.436s-9.066 3.451-11.242 4.155c-4.967 1.608-23.97 2.224-28.824.935m12.487-4.164c9.78 1.034 17.674-.432 29.372-5.453 2.132-.916 5.41-1.861 7.285-2.102 7.968-1.023 23.58-5.21 28.547-7.657 3.815-1.878 6.071-3.872 7.804-6.897 2.747-4.793 5.001-11.453 5.025-14.847.011-1.593 2.524-4.225 8.447-8.846 14.263-11.127 16.83-13.293 23.977-20.23 3.802-3.69 7.367-7.982 7.922-9.537 2.405-6.736 4.402-13.597 5.367-18.437.57-2.861 1.332-6.41 1.692-7.888.783-3.205-3.902-19.374-6.656-22.972-2.163-2.826-8.472-16.157-8.475-17.907-.003-1.856-9.506-19.943-16.206-30.842-16.729-27.218-30.25-42.163-44.67-49.373-8.491-4.246-12.283-4.523-39.545-2.884-14.64.88-34.91.356-47.312-1.222-1.982-.252-4.792.16-6.243.914-4.778 2.485-27.74 28.43-36.78 41.559-3.705 5.38-11.6 20.857-14.257 27.949-1.192 3.18-4.232 7.802-7.338 11.154-7.619 8.222-11.365 15.089-11.377 20.853-.012 5.555 1.807 9.223 11.958 24.115 6.28 9.214 20.292 35.698 20.292 38.353 0 .496.666 2.44 1.479 4.319s2.78 6.635 4.373 10.568c1.864 4.608 4.947 9.464 8.667 13.653 3.176 3.576 7.775 8.886 10.22 11.8 7.926 9.447 21.921 17.14 36.525 20.079 5.436 1.093 10.116 2.22 10.398 2.502.283.283 2.187.199 4.231-.187s4.42-.628 5.278-.537m-35.011-78.357c-1.516-1.062-2.394-3.18-2.9-6.999-.4-3.011-1.222-6.073-1.828-6.802-.721-.87-3.918-1.327-9.262-1.327-9.19 0-9.544.28-11.854 9.36l-1.193 4.689-7.48.305c-7.155.293-8.652-.27-6.5-2.439.54-.544 1.453-2.862 2.028-5.151.575-2.29 2.035-7.44 3.243-11.447 1.21-4.007 2.848-9.86 3.643-13.008 3.837-15.2 4.492-17.594 5.075-18.537.76-1.23 3.78-14.143 4.26-18.221.19-1.615.508-3.088.705-3.272s4.807-.501 10.245-.705l9.886-.371.282 3.122c.286 3.154 8.428 38.22 13.773 59.317 1.596 6.296 2.687 11.798 2.427 12.228-.866 1.425-12.288.842-14.55-.742m-7.197-25.434c.32-.517.123-3.678-.435-7.025-.853-5.109-3.703-20.611-4.074-22.162-.062-.257-.574-.006-1.139.558-1.812 1.813-7.729 26.99-6.724 28.615.763 1.235 11.61 1.247 12.372.014m26.522 24.094c-.042-.429-.009-16.459.072-35.622.097-22.655.532-35.304 1.244-36.163.723-.87 4.006-1.32 9.637-1.32h8.54l5.283 13.788a4609 4609 0 0 1 9.283 24.454c2.2 5.866 4.344 10.666 4.763 10.667.42 0 .888-11.589 1.041-25.755l.278-25.756h7.285c6.659 0 7.267.179 7.08 2.081-.112 1.145-.537 18.372-.945 38.282l-.74 36.201-8.779-.298-8.778-.298-3.374-9.887c-1.857-5.437-4.658-12.93-6.226-16.65s-3.786-9.309-4.93-12.419-3.055-7.558-4.248-9.886l-2.17-4.232-.933 2.775c-.55 1.635-.556 12.324-.014 26.017.507 12.782.74 23.592.517 24.021s-3.42.78-7.107.78c-3.686 0-6.737-.35-6.779-.78m75.988 0c-.031-.429-.008-6.444.05-13.367.073-8.616-.366-13.87-1.392-16.65-2.052-5.564-6.859-17.957-8.44-21.755-6.485-15.589-8.136-20.425-7.268-21.287.952-.944 14.74-1.834 15.35-.991.17.233 1.856 6.746 3.748 14.473s3.846 14.483 4.342 15.014c1.61 1.722 8.328-18.073 8.626-25.42l.148-3.643 9.096-.3c10.118-.335 10.983.377 7.058 5.806-1.122 1.55-3.65 7.268-5.618 12.706s-5.265 13.79-7.327 18.564c-3.708 8.585-3.748 8.83-3.748 23.154v14.477h-7.285c-4.006 0-7.31-.351-7.34-.78" style="fill:#5d492a;stroke-width:1.04065" transform="translate(278.945 -82.313)scale(1.0278)"/></svg>